<svg width="512" height="460" xmlns="http://www.w3.org/2000/svg">
 <g>
  <title>Layer 1</title>
  <g stroke="null">
   <g stroke="null" transform="matrix(0.43752 0 0 -0.43752 -55.1705 770.317)">
    <path stroke="null" d="m982.24714,1563.29606q-35,0 -84.5,-22t-106.5,-61l-2,-1q-17,6 -37,9.5t-41,3.5q-50,0 -93.5,-19t-75.5,-51l0,0q-32,-32 -51,-75.5t-19,-93.5q0,-19 3,-38t9,-37l0,2q-65,-90 -90,-160.5t3,-98.5l0,0q29,-29 103.5,-1.5t167.5,96.5l2,2q9,-2 19.5,-3t21.5,-1q50,0 93.5,19t75.5,51l0,0q32,32 51,75.5t19,93.5q0,12 -1.5,24t-3.5,24l0,-2q62,87 84.5,154.5t-4.5,95.5l0,0l0,0l0,0q-8,7 -19,11t-25,3l1,0l0,0zm-50,-37q8,1 15.5,-1.5t11.5,-7.5l0,0q16,-15 4,-53.5t-45,-90.5l0,-1q-8,14 -17.5,26.5t-20.5,23.5l0,0q-15,15 -33,27.5t-38,21.5l-1,1q38,25 69.5,39t53.5,15l1,0l0,0zm-442,-364q10,-23 23,-42.5t29,-35.5l0,0q12,-12 25.5,-22t27.5,-18l2,-1q-61,-42 -106,-58t-63,1l0,0q-17,18 0.5,65t61.5,110l0,1l0,0z" fill="#ffffff"/>
   </g>
  </g>
 </g>

</svg>