<svg width="512" height="512" xmlns="http://www.w3.org/2000/svg">
 <g>
  <title>Layer 1</title>
  <g stroke="null">
   <g stroke="null">
    <title stroke="null">Layer 1</title>
    <g stroke="null">
     <g stroke="null" transform="translate(0 0)">
      <path stroke="null" d="m175.62302,94.76299l-80.85057,80.84788l19.95696,19.95696c15.54352,-36.22638 44.62015,-65.30571 80.84788,-80.84923l-19.95561,-19.95561l0.00135,0zm160.75532,0.02699l-19.93942,19.93806c36.22301,15.54891 65.29761,44.63027 80.83574,80.85934l19.95291,-19.95224l-80.84923,-80.84788l0,0.0027l0,0.00001zm-89.90818,24.98836c-71.0529,4.88028 -127.01833,63.90113 -127.01833,136.21086c0,75.51154 61.03124,136.54345 136.54412,136.54345c22.09419,0 42.94706,-5.23312 61.39622,-14.51807l-15.0173,-10.64569c-14.28398,5.96374 -29.9496,9.26539 -46.37757,9.26539c-66.55377,0 -120.64238,-54.08658 -120.64238,-120.64035c0,-61.35237 45.96469,-112.10896 105.28641,-119.66754l5.8268,-16.54737l0.00202,-0.00067l0.00001,-0.00001zm19.85576,0.05127l5.77147,16.59864c58.9608,7.88644 104.54094,58.47034 104.54094,119.56499c0,32.54019 -12.93269,62.09513 -33.92723,83.80951l5.82409,16.65396c27.06622,-24.93641 44.00624,-60.68988 44.00624,-100.46819c0,-72.03853 -55.54379,-130.89409 -126.21552,-136.15959l0,0.00067l0.00001,0.00001zm-9.95082,9.77542l-21.79061,61.86778l12.7674,0l0,30.40431c2.93465,-0.79742 6.01569,-1.23053 9.19523,-1.23053c2.9414,0 5.79913,0.36902 8.53409,1.05512l0,-30.22891l12.80451,0l-21.51063,-61.86913l0,0.00135l0.00001,0zm48.45205,29.96714l-11.60164,20.09728c-2.32478,-1.11786 -4.71096,-2.13048 -7.1484,-3.03584l9.54199,27.44605l-17.92901,0l0,23.65056c8.56917,6.45083 14.13354,16.70119 14.13354,28.19489c0,5.86728 -1.4572,11.40802 -4.01811,16.28696l27.46089,36.5556l13.13238,-9.89145l3.32189,9.49882l13.89944,8.0261c2.34569,-3.47638 4.49102,-7.09848 6.42654,-10.84808l-19.80044,-11.43164c4.70016,-9.33825 7.72251,-19.66687 8.67576,-30.5932l22.84439,0c0.17068,-2.48939 0.26446,-5.00037 0.26446,-7.53429c0,-1.70007 -0.04452,-3.3907 -0.12143,-5.07323l-22.81605,0c-0.66114,-11.07948 -3.44737,-21.58349 -7.95796,-31.10863l19.86791,-11.47009c-1.86198,-3.78873 -3.93648,-7.45199 -6.21201,-10.97356l-19.88815,11.48224c-6.05145,-9.00634 -13.78543,-16.78484 -22.75533,-22.88486l11.57196,-20.04331c-3.49325,-2.31939 -7.12816,-4.44245 -10.89126,-6.34829l-0.00135,-0.00202l0,0.00001zm-98.07797,0.21116c-3.75567,1.9227 -7.38048,4.0633 -10.86427,6.39754l11.88701,20.59178c-8.696,6.13241 -16.18307,13.86031 -22.04022,22.76005l-20.67409,-11.93761c-2.26811,3.52698 -4.33249,7.1963 -6.18435,10.98976l20.73144,11.96797c-4.30752,9.32881 -6.96894,19.57512 -7.61322,30.36855l-23.90355,0c-0.07759,1.68185 -0.12278,3.37181 -0.12278,5.07323c0,2.53325 0.09445,5.04422 0.26446,7.53362l23.93391,0c0.92897,10.64232 3.82112,20.7166 8.31416,29.8619l-20.6525,11.92344c1.92607,3.75433 4.06668,7.37912 6.4036,10.86157l20.63834,-11.91602c5.89966,8.51521 13.31925,15.89432 21.87021,21.74743l-11.82427,20.4771c3.50943,2.29375 7.16189,4.38848 10.93983,6.26868l11.78785,-20.41773c9.13114,4.42153 19.17843,7.2496 29.78297,8.13066l0,23.35576c2.17502,0.13021 4.36622,0.20441 6.57496,0.20441c2.0239,0 4.03429,-0.06072 6.03121,-0.17001l0,-23.27277c4.4492,-0.28335 8.8026,-0.91615 13.03726,-1.85929l7.20642,-5.42876l-32.0585,-42.67519c-16.4111,-3.00481 -28.9471,-17.44733 -28.9471,-34.69496c0,-11.19416 5.28439,-21.20368 13.47645,-27.67744l0,-24.16868l-17.96545,0l9.57707,-27.19441c-2.654,1.01195 -5.24661,2.14803 -7.76501,3.41094l-11.84249,-20.51218l0.00067,0.00067l-0.00003,-0.00001zm49.79727,73.47146c-12.59537,0 -22.67101,10.07562 -22.67101,22.67101c0,12.59537 10.0763,22.66965 22.67101,22.66965c12.59537,0 22.67033,-10.07495 22.67033,-22.66965c0,-12.59537 -10.07495,-22.67033 -22.67033,-22.67033l0,-0.00067zm23.18238,49.19887c-4.03295,3.53102 -8.86601,6.16614 -14.18751,7.57814l34.37384,45.75893l-9.83479,7.41016l53.79514,38.13356l-21.68064,-62.00001l-9.42798,7.1005l-33.03874,-43.98127l0.00067,0zm117.53638,33.95422c-9.5818,22.33166 -24.31171,41.93984 -42.68395,57.34236l6.54393,18.70956l56.09564,-56.09564l-19.95561,-19.95561l0,-0.00067l-0.00001,0zm-282.52771,0.02159l-19.95898,19.95966l80.84788,80.84788l19.97113,-19.97113c-36.22907,-15.53879 -65.31111,-44.6134 -80.86002,-80.83641l-0.00001,0zm218.13747,72.55867c-5.29451,3.07092 -10.78871,5.83557 -16.45764,8.26694l19.95561,19.95561l15.06453,-15.06453l-18.56249,-13.15802l0,0.00001z" fill="#ffffff"/>
     </g>
    </g>
   </g>
  </g>
 </g>

</svg>