<svg width="50" height="50" xmlns="http://www.w3.org/2000/svg">
 <g>
  <title>Layer 1</title>
  <g stroke="null">
   <path stroke="null" fill="#ffffff" d="m24.99999,7.27944l-6.67138,6.73183l6.67138,6.78138l6.67138,-6.78138l-6.67138,-6.73183zm-13.29409,13.5132l0,11.83014c2.4997,0.82493 4.70734,1.23746 6.62271,1.23746c1.94778,0 4.17162,1.27055 6.67138,3.81136c2.49976,-2.54081 4.70725,-3.81136 6.62262,-3.81136c1.94792,0 4.17176,-0.41253 6.67152,-1.23746l0,-11.83014c-2.49976,0.82493 -4.7236,1.25393 -6.67152,1.28688c-1.91537,0 -4.12287,1.25407 -6.62262,3.76194c-2.49976,-2.54095 -4.7236,-3.81136 -6.67138,-3.81136c-1.91537,0 -4.123,-0.41253 -6.62271,-1.23746zm-3.31134,3.36588l0,13.51308l13.29412,3.36602l0,1.68294l6.62262,0l0,-1.68294l13.29414,-3.36602l0,-13.51308l-1.65566,0.39592l0,11.43422l-13.29414,3.36602l0,1.28688l-1.65566,0.39606l-1.65566,-0.39606l0,-1.28688l-13.2941,-3.36602l0,-11.43422l-1.65567,-0.39592z"/>
  </g>
 </g>

</svg>