<svg width="512" height="512" xmlns="http://www.w3.org/2000/svg">
 <g>
  <title>Layer 1</title>
  <g stroke="null">
   <g stroke="null" transform="matrix(0.514525 0 0 -0.514525 5.73778 697.794)">
    <path stroke="null" d="m452.39513,472.45475l-103,0l0,307l51,0l0,-68l52,-35l0,-204zm-34,682l-34,-68l-171,0l0,-68l136,-34l0,-103l69,-34l34,-102l68,0l34,102l69,34l0,103l136,34l0,68l-171,0l-34,68l-136,0zm68,-68l68,-68l-68,-68l-68,68l68,68zm35,-614l102,0l0,307l-52,0l0,-68l-50,-35l0,-204zm238,478l-68,-18l0,-221l68,34l0,205zm-546,0l68,-18l0,-221l-68,34l0,205z" fill="#ffffff"/>
   </g>
  </g>
 </g>

</svg>