<svg width="40" height="40" xmlns="http://www.w3.org/2000/svg" xmlns:undefined="http://www.inkscape.org/namespaces/inkscape">
 <g>
  <title>Layer 1</title>
  <g stroke="null">

   <metadata stroke="null" fill="#ffffff" id="svg_13">image/svg+xml</metadata>
   <g stroke="null" transform="translate(0 -288.533)" id="svg_10"  >
    <g stroke="null" transform="matrix(0.0660259 0 0 -0.0660259 -38.8884 1464.54)" id="svg_11">
     <path stroke="null" stroke-width="0.81451" fill="#ffffff"  d="m697.23207,17786.17479l-83.07963,-83.07964l0,-55.38643l27.69321,0l110.77286,110.77285l0,27.69322l-55.38644,0zm333.94757,0l0,-27.69321l110.77284,-110.77285l27.69322,0l0,55.38643l-83.07964,83.07963l-55.38642,0zm-139.28057,-83.07964q-39.9108,0 -68.41853,-28.50772q-28.50772,-28.50771 -28.50772,-69.23303q0,-39.9108 28.50772,-68.41852q28.50772,-28.50772 68.41853,-28.50772q39.9108,0 68.41852,28.50771q28.50772,28.50773 28.50772,68.41853q0,40.72532 -28.50772,69.23303q-28.50772,28.50772 -68.41852,28.50772zm-125.43396,-208.51359l0,-30.13674q-8.95958,-5.70154 -19.1409,-11.81034l-22.39892,-13.43935q-2.44352,-9.77407 -4.47979,-17.51189q-2.03627,-7.73781 -4.47978,-15.88287l175.93335,-92.03921l175.93335,92.03921q-2.44351,8.14506 -4.47978,15.88287q-2.03627,7.73782 -4.47978,17.51189l-22.39893,13.43935q0,0 -19.1409,11.81034l0,30.13674l-32.58025,0q-13.0321,-14.66111 -29.72948,-24.43519q-16.69738,-9.77408 -35.43102,-13.84661l0,-59.45895l-27.69321,-27.69321l-27.69321,27.69321l0,59.45895q-18.73364,4.07253 -35.43102,13.8466q-16.69738,9.77408 -29.72948,24.43519l-32.58025,0.00001zm-152.31267,-125.43396l0,-55.38644l83.07963,-83.07963l55.38644,0l0,27.69322l-110.77286,110.77285l-27.69321,0zm527.80005,0l-110.77285,-110.77285l0,-27.69322l55.38643,0l83.07963,83.07963l0,55.38644l-27.69321,0z" id="svg_12"/>
    </g>
   </g>
  </g>
 </g>

</svg>