<svg width="30.000000000000004" height="30.000000000000004" xmlns="http://www.w3.org/2000/svg">
 <g>
  <title>Layer 1</title>
  <g>
   <path fill="#ffffff" d="m9.62108,13.10154l0,1.3008c-0.2813,0.1406 -0.5742,0.3047 -0.8789,0.4922c-0.2813,0.1641 -0.5977,0.3633 -0.9492,0.5977c-0.586,2.3906 -1.13675,4.2304 -1.65238,5.5195c-0.49218,1.2656 -0.73828,2.4258 -0.73828,3.4805c0.49219,0.2109 0.9961,0.3984 1.51172,0.5625c0.51564,0.1406 1.04294,0.2812 1.58204,0.4218l0.7031,-2.6718c1.1719,0.3046 2.4961,0.539 3.9727,0.7031c1.4765,0.164 2.625,0.2226 3.4453,0.1758l2.8476,2.2148c0.8672,-0.1406 1.7344,-0.3281 2.6016,-0.5625c0.8672,-0.2344 1.7109,-0.5156 2.5313,-0.8437c0,-1.0313 -0.2579,-2.1915 -0.7735,-3.4805c-0.4922,-1.2891 -1.0312,-3.1289 -1.6172,-5.5195c-0.3515,-0.2344 -0.6797,-0.4336 -0.9843,-0.5977c-0.2813,-0.1875 -0.5508,-0.3516 -0.8086,-0.4922l0,-1.3008l-1.4063,0c-0.5156,0.5625 -1.125,1.0078 -1.8281,1.336c-0.6797,0.3047 -1.4063,0.457 -2.1797,0.457c-0.7734,0 -1.5117,-0.1523 -2.2148,-0.457c-0.6797,-0.3282 -1.2774,-0.7735 -1.793,-1.336l-0.1758,0l-1.1953,0zm8.9648,3.6211l2.4258,2.3907l-2.4258,2.3906l-2.3906,-2.3906l2.3906,-2.3907zm0.5977,-8.4375c0,1.1719 -0.4102,2.168 -1.2305,2.9883c-0.7969,0.8203 -1.7812,1.2305 -2.9531,1.2305c-1.1484,0 -2.1328,-0.4102 -2.9531,-1.2305c-0.8203,-0.8203 -1.2305,-1.8164 -1.2305,-2.9883c0,-1.1484 0.4102,-2.13279 1.2305,-2.9531c0.8203,-0.82031 1.8047,-1.23047 2.9531,-1.23047c1.1719,0 2.1562,0.41016 2.9531,1.23047c0.8203,0.82031 1.2305,1.8047 1.2305,2.9531z"/>
  </g>
 </g>

</svg>