<svg width="512" height="512" xmlns="http://www.w3.org/2000/svg">
 <g>
  <title>Layer 1</title>
  <g stroke="null">
   <g stroke="null">
    <title stroke="null">Layer 1</title>
    <g stroke="null">
     <g stroke="null" transform="matrix(0.499363 0 0 -0.499363 -15.6102 452.576)">
      <path stroke="null" fill="#ffffff" d="m543.91351,700.65438q-61,0 -117,-25t-98,-67t-67,-98t-25,-117l68,0q0,46 20,89t53.5,76.5t76.5,53.5t89,20q48,0 92.5,-22t77.5,-58l-68,-22l171,-69l0,196l-45,-63q-43,48 -102.5,77t-125.5,29l0,0zm0,-239l0,0l0,0q-28,0 -48,-20t-20,-48l0,0l0,0l0,0l0,0l0,0q0,-28 20,-48t48,-20l0,0l0,0l0,0l0,0l0,0q28,0 48,20t20,48l0,0l0,0l0,0l0,0l0,0q0,28 -20,48t-48,20l0,0l0,0l0,0l0,0zm239,-68l0,0q0,-46 -20,-89t-53.5,-76.5t-76.5,-53.5t-89,-20q-48,0 -92.5,22t-77.5,58l68,22l-171,69l0,-196l45,63q43,-48 102.5,-77t125.5,-29q61,0 117,25t98,67t67,98t25,117l0,0l-68,0z"/>
     </g>
    </g>
   </g>
  </g>
 </g>

</svg>