<svg width="512" height="460" xmlns="http://www.w3.org/2000/svg">
 <g>
  <title>Layer 1</title>
  <g stroke="null">
   <g stroke="null" transform="matrix(0.443709 0 0 -0.443709 -112.371 349.192)">
    <path stroke="null" d="m830.20829,544.62742q-23,0 -39,-16t-16,-39l0,0q0,-23 16,-39.5t39,-16.5l0,0q23,0 39,16.5t16,39.5l0,0q0,23 -16,39t-39,16l0,0l0,0zm-163,-79q-25,0 -43,-18t-18,-44l0,0l0,0l0,0q0,-25 18,-43t43,-18l0,0l0,0l0,0q26,0 44,18t18,43l0,0l0,0l0,0q0,26 -18,44t-44,18l0,0l0,0l0,0zm326,0l0,0l0,0q-26,0 -44,-18t-18,-44l0,0l0,0l0,0q0,-25 18,-43t44,-18l0,0l0,0l0,0q25,0 43,18t18,43l0,0l0,0l0,0q0,26 -18,44t-43,18l0,0l0,0zm-163,-93q-28,0 -48,-20t-20,-49l0,0q0,-28 20,-48t48,-20l0,0q28,0 48,20t20,48l0,0q0,29 -20,49t-48,20l0,0zm-335,-3q-29,0 -49,-20t-20,-49l0,0q0,-28 20,-48t49,-20l0,0q28,0 48,20t20,48l0,0q0,29 -20,49t-48,20l0,0zm670,0q-28,0 -48,-20t-20,-49l0,0q0,-28 20,-48t48,-20l0,0q29,0 49,20t20,48l0,0q0,29 -20,49t-49,20l0,0zm-519,-105q-31,0 -53.5,-22t-22.5,-54l0,0l0,0l0,0l0,0l0,0q0,-31 22.5,-53.5t53.5,-22.5l0,0l0,0l0,0q31,0 53.5,22.5t22.5,53.5l0,0l0,0l0,0l0,0l0,0q0,32 -22.5,54t-53.5,22l0,0l0,0l0,0zm368,0l0,0l0,0q-31,0 -53.5,-22t-22.5,-54l0,0l0,0l0,0l0,0l0,0q0,-31 22.5,-53.5t53.5,-22.5l0,0l0,0l0,0q31,0 53.5,22.5t22.5,53.5l0,0l0,0l0,0l0,0l0,0q0,32 -22.5,54t-53.5,22l0,0zm-184,-104l0,0l0,0q-35,0 -59.5,-24.5t-24.5,-59.5l0,0l0,0l0,0q0,-35 24.5,-59.5t59.5,-24.5l0,0l0,0l0,0l0,0l0,0q35,0 59.5,24.5t24.5,59.5l0,0l0,0l0,0q0,35 -24.5,59.5t-59.5,24.5l0,0l0,0l0,0z" fill="#ffffff"/>
   </g>
  </g>
 </g>

</svg>